<mxfile host="app.diagrams.net" agent="Mozilla/5.0 (Windows NT 10.0; Win64; x64) AppleWebKit/537.36 (KHTML, like Gecko) Chrome/137.0.0.0 Safari/537.36" version="27.1.6">
  <diagram name="Page-1" id="G5X15BmKRhYMFyiFkBY5">
    <mxGraphModel dx="1106" dy="563" grid="1" gridSize="10" guides="1" tooltips="1" connect="1" arrows="1" fold="1" page="1" pageScale="1" pageWidth="2336" pageHeight="1654" math="0" shadow="0">
      <root>
        <mxCell id="0" />
        <mxCell id="1" parent="0" />
        <mxCell id="8vNSCbNxaSFnTM4sZ4fX-39" value="" style="rounded=0;whiteSpace=wrap;html=1;" parent="1" vertex="1">
          <mxGeometry x="40" y="20" width="680" height="540" as="geometry" />
        </mxCell>
        <mxCell id="8vNSCbNxaSFnTM4sZ4fX-2" value="Page Objects" style="swimlane;fontStyle=1;childLayout=stackLayout;horizontal=1;startSize=30;horizontalStack=0;resizeParent=1;resizeParentMax=0;resizeLast=0;collapsible=1;marginBottom=0;whiteSpace=wrap;html=1;fontColor=#FF0000;" parent="1" vertex="1">
          <mxGeometry x="80" y="190" width="130" height="120" as="geometry" />
        </mxCell>
        <mxCell id="8vNSCbNxaSFnTM4sZ4fX-3" value="LoginPage" style="text;strokeColor=none;fillColor=none;align=left;verticalAlign=middle;spacingLeft=4;spacingRight=4;overflow=hidden;points=[[0,0.5],[1,0.5]];portConstraint=eastwest;rotatable=0;whiteSpace=wrap;html=1;" parent="8vNSCbNxaSFnTM4sZ4fX-2" vertex="1">
          <mxGeometry y="30" width="130" height="30" as="geometry" />
        </mxCell>
        <mxCell id="8vNSCbNxaSFnTM4sZ4fX-4" value="EmployeePage" style="text;strokeColor=none;fillColor=none;align=left;verticalAlign=middle;spacingLeft=4;spacingRight=4;overflow=hidden;points=[[0,0.5],[1,0.5]];portConstraint=eastwest;rotatable=0;whiteSpace=wrap;html=1;" parent="8vNSCbNxaSFnTM4sZ4fX-2" vertex="1">
          <mxGeometry y="60" width="130" height="30" as="geometry" />
        </mxCell>
        <mxCell id="8vNSCbNxaSFnTM4sZ4fX-5" value="DeptPage" style="text;strokeColor=none;fillColor=none;align=left;verticalAlign=middle;spacingLeft=4;spacingRight=4;overflow=hidden;points=[[0,0.5],[1,0.5]];portConstraint=eastwest;rotatable=0;whiteSpace=wrap;html=1;" parent="8vNSCbNxaSFnTM4sZ4fX-2" vertex="1">
          <mxGeometry y="90" width="130" height="30" as="geometry" />
        </mxCell>
        <mxCell id="8vNSCbNxaSFnTM4sZ4fX-7" value="" style="shape=flexArrow;endArrow=classic;html=1;rounded=0;fillColor=#f5f5f5;strokeColor=#666666;gradientColor=#b3b3b3;" parent="1" target="8vNSCbNxaSFnTM4sZ4fX-8" edge="1">
          <mxGeometry width="50" height="50" relative="1" as="geometry">
            <mxPoint x="210" y="249.5" as="sourcePoint" />
            <mxPoint x="280" y="249.5" as="targetPoint" />
          </mxGeometry>
        </mxCell>
        <mxCell id="8vNSCbNxaSFnTM4sZ4fX-8" value="Test Cases" style="swimlane;fontStyle=1;childLayout=stackLayout;horizontal=1;startSize=30;horizontalStack=0;resizeParent=1;resizeParentMax=0;resizeLast=0;collapsible=1;marginBottom=0;whiteSpace=wrap;html=1;fontColor=light-dark(#FF0000,#EDEDED);" parent="1" vertex="1">
          <mxGeometry x="250" y="190" width="140" height="120" as="geometry" />
        </mxCell>
        <mxCell id="8vNSCbNxaSFnTM4sZ4fX-9" value="LoginTest" style="text;strokeColor=none;fillColor=none;align=left;verticalAlign=middle;spacingLeft=4;spacingRight=4;overflow=hidden;points=[[0,0.5],[1,0.5]];portConstraint=eastwest;rotatable=0;whiteSpace=wrap;html=1;" parent="8vNSCbNxaSFnTM4sZ4fX-8" vertex="1">
          <mxGeometry y="30" width="140" height="30" as="geometry" />
        </mxCell>
        <mxCell id="8vNSCbNxaSFnTM4sZ4fX-10" value="EmployeeTest" style="text;strokeColor=none;fillColor=none;align=left;verticalAlign=middle;spacingLeft=4;spacingRight=4;overflow=hidden;points=[[0,0.5],[1,0.5]];portConstraint=eastwest;rotatable=0;whiteSpace=wrap;html=1;" parent="8vNSCbNxaSFnTM4sZ4fX-8" vertex="1">
          <mxGeometry y="60" width="140" height="30" as="geometry" />
        </mxCell>
        <mxCell id="8vNSCbNxaSFnTM4sZ4fX-11" value="DeptTest" style="text;strokeColor=none;fillColor=none;align=left;verticalAlign=middle;spacingLeft=4;spacingRight=4;overflow=hidden;points=[[0,0.5],[1,0.5]];portConstraint=eastwest;rotatable=0;whiteSpace=wrap;html=1;" parent="8vNSCbNxaSFnTM4sZ4fX-8" vertex="1">
          <mxGeometry y="90" width="140" height="30" as="geometry" />
        </mxCell>
        <mxCell id="8vNSCbNxaSFnTM4sZ4fX-12" value="" style="shape=flexArrow;endArrow=classic;html=1;rounded=0;fillColor=#f5f5f5;strokeColor=#666666;gradientColor=#b3b3b3;" parent="1" edge="1">
          <mxGeometry width="50" height="50" relative="1" as="geometry">
            <mxPoint x="390" y="249.5" as="sourcePoint" />
            <mxPoint x="430" y="250" as="targetPoint" />
          </mxGeometry>
        </mxCell>
        <mxCell id="8vNSCbNxaSFnTM4sZ4fX-19" value="" style="shape=flexArrow;endArrow=classic;html=1;rounded=0;fillColor=#f5f5f5;gradientColor=#b3b3b3;strokeColor=#666666;" parent="1" edge="1">
          <mxGeometry width="50" height="50" relative="1" as="geometry">
            <mxPoint x="550" y="249.5" as="sourcePoint" />
            <mxPoint x="590" y="249.5" as="targetPoint" />
          </mxGeometry>
        </mxCell>
        <mxCell id="8vNSCbNxaSFnTM4sZ4fX-25" value="" style="rounded=0;whiteSpace=wrap;html=1;" parent="1" vertex="1">
          <mxGeometry x="80" y="350" width="310" height="120" as="geometry" />
        </mxCell>
        <mxCell id="8vNSCbNxaSFnTM4sZ4fX-29" value="Resources" style="rounded=1;whiteSpace=wrap;html=1;labelBorderColor=none;fontColor=#FF0000;fontStyle=1" parent="1" vertex="1">
          <mxGeometry x="300" y="370" width="70" height="30" as="geometry" />
        </mxCell>
        <mxCell id="8vNSCbNxaSFnTM4sZ4fX-31" value="" style="rounded=0;whiteSpace=wrap;html=1;" parent="1" vertex="1">
          <mxGeometry x="430" y="350" width="240" height="120" as="geometry" />
        </mxCell>
        <mxCell id="8vNSCbNxaSFnTM4sZ4fX-32" value="Reports" style="rounded=1;whiteSpace=wrap;html=1;fontColor=#FF0000;fontStyle=1" parent="1" vertex="1">
          <mxGeometry x="470" y="370" width="70" height="30" as="geometry" />
        </mxCell>
        <mxCell id="8vNSCbNxaSFnTM4sZ4fX-33" value="Logs" style="rounded=1;whiteSpace=wrap;html=1;fontColor=#FF0000;fontStyle=1" parent="1" vertex="1">
          <mxGeometry x="570" y="370" width="70" height="30" as="geometry" />
        </mxCell>
        <mxCell id="8vNSCbNxaSFnTM4sZ4fX-40" value="" style="shape=flexArrow;endArrow=classic;html=1;rounded=0;entryX=0;entryY=0.5;entryDx=0;entryDy=0;fillColor=#f5f5f5;gradientColor=#b3b3b3;strokeColor=#666666;" parent="1" target="8vNSCbNxaSFnTM4sZ4fX-42" edge="1">
          <mxGeometry width="50" height="50" relative="1" as="geometry">
            <mxPoint x="720" y="214.5" as="sourcePoint" />
            <mxPoint x="760" y="214.5" as="targetPoint" />
          </mxGeometry>
        </mxCell>
        <mxCell id="8vNSCbNxaSFnTM4sZ4fX-42" value="Git" style="rounded=0;whiteSpace=wrap;html=1;fontStyle=1" parent="1" vertex="1">
          <mxGeometry x="770" y="180" width="100" height="70" as="geometry" />
        </mxCell>
        <mxCell id="8vNSCbNxaSFnTM4sZ4fX-46" value="" style="shape=flexArrow;endArrow=classic;html=1;rounded=0;exitX=0.5;exitY=1;exitDx=0;exitDy=0;entryX=0.5;entryY=0;entryDx=0;entryDy=0;fillColor=#f5f5f5;gradientColor=#b3b3b3;strokeColor=#666666;" parent="1" source="8vNSCbNxaSFnTM4sZ4fX-42" target="8vNSCbNxaSFnTM4sZ4fX-45" edge="1">
          <mxGeometry width="50" height="50" relative="1" as="geometry">
            <mxPoint x="815" y="250" as="sourcePoint" />
            <mxPoint x="805" y="290" as="targetPoint" />
          </mxGeometry>
        </mxCell>
        <mxCell id="8vNSCbNxaSFnTM4sZ4fX-48" value="" style="shape=flexArrow;endArrow=classic;html=1;rounded=0;exitX=0.5;exitY=1;exitDx=0;exitDy=0;entryX=0.5;entryY=0;entryDx=0;entryDy=0;" parent="1" source="8vNSCbNxaSFnTM4sZ4fX-45" edge="1">
          <mxGeometry width="50" height="50" relative="1" as="geometry">
            <mxPoint x="810" y="403" as="sourcePoint" />
            <mxPoint x="810" y="463" as="targetPoint" />
          </mxGeometry>
        </mxCell>
        <mxCell id="8vNSCbNxaSFnTM4sZ4fX-49" value="" style="shape=flexArrow;endArrow=classic;html=1;rounded=0;exitX=0.5;exitY=1;exitDx=0;exitDy=0;entryX=0.5;entryY=0;entryDx=0;entryDy=0;" parent="1" target="8vNSCbNxaSFnTM4sZ4fX-45" edge="1">
          <mxGeometry width="50" height="50" relative="1" as="geometry">
            <mxPoint x="810" y="403" as="sourcePoint" />
            <mxPoint x="810" y="463" as="targetPoint" />
          </mxGeometry>
        </mxCell>
        <mxCell id="8vNSCbNxaSFnTM4sZ4fX-45" value="GitHub&lt;div&gt;&lt;br&gt;&lt;/div&gt;&lt;div&gt;&lt;br&gt;&lt;/div&gt;&lt;div&gt;&lt;br&gt;&lt;/div&gt;&lt;div&gt;&lt;br&gt;&lt;/div&gt;&lt;div&gt;&lt;br&gt;&lt;/div&gt;&lt;div&gt;&lt;br&gt;&lt;/div&gt;&lt;div&gt;&lt;br&gt;&lt;/div&gt;&lt;div&gt;Azure DevOps&lt;/div&gt;" style="rounded=0;whiteSpace=wrap;html=1;fontStyle=1" parent="1" vertex="1">
          <mxGeometry x="770" y="310" width="100" height="250" as="geometry" />
        </mxCell>
        <mxCell id="8vNSCbNxaSFnTM4sZ4fX-67" value="" style="shape=link;html=1;rounded=0;entryX=0.515;entryY=0.9;entryDx=0;entryDy=0;entryPerimeter=0;" parent="1" edge="1">
          <mxGeometry width="100" relative="1" as="geometry">
            <mxPoint x="79" y="517" as="sourcePoint" />
            <mxPoint x="390.20000000000005" y="517" as="targetPoint" />
          </mxGeometry>
        </mxCell>
        <mxCell id="8vNSCbNxaSFnTM4sZ4fX-68" value="Development" style="rounded=0;whiteSpace=wrap;html=1;fillColor=light-dark(#141414, #ededed);fontColor=light-dark(#ffffff, #ededed);strokeColor=none;gradientColor=none;fontStyle=1" parent="1" vertex="1">
          <mxGeometry x="170" y="500" width="120" height="30" as="geometry" />
        </mxCell>
        <mxCell id="8vNSCbNxaSFnTM4sZ4fX-70" value="" style="shape=link;html=1;rounded=0;" parent="1" edge="1">
          <mxGeometry width="100" relative="1" as="geometry">
            <mxPoint x="430" y="517" as="sourcePoint" />
            <mxPoint x="669" y="517" as="targetPoint" />
          </mxGeometry>
        </mxCell>
        <mxCell id="8vNSCbNxaSFnTM4sZ4fX-77" value="Execution" style="rounded=0;whiteSpace=wrap;html=1;gradientColor=default;fillColor=light-dark(#0a0a0a, #ededed);fontColor=light-dark(#ffffff, #ededed);fontStyle=1" parent="1" vertex="1">
          <mxGeometry x="496" y="500" width="120" height="30" as="geometry" />
        </mxCell>
        <mxCell id="8vNSCbNxaSFnTM4sZ4fX-78" value="" style="shape=flexArrow;endArrow=classic;html=1;rounded=0;exitX=0.5;exitY=1;exitDx=0;exitDy=0;entryX=0.5;entryY=0;entryDx=0;entryDy=0;fillColor=#f5f5f5;gradientColor=#b3b3b3;strokeColor=#666666;" parent="1" edge="1">
          <mxGeometry width="50" height="50" relative="1" as="geometry">
            <mxPoint x="819.5" y="410" as="sourcePoint" />
            <mxPoint x="819.5" y="470" as="targetPoint" />
          </mxGeometry>
        </mxCell>
        <mxCell id="8vNSCbNxaSFnTM4sZ4fX-79" value="" style="shape=flexArrow;endArrow=classic;html=1;rounded=0;entryX=0.25;entryY=0;entryDx=0;entryDy=0;fillColor=#f5f5f5;gradientColor=#b3b3b3;strokeColor=#666666;exitX=0.5;exitY=1;exitDx=0;exitDy=0;exitPerimeter=0;" parent="1" target="8vNSCbNxaSFnTM4sZ4fX-31" edge="1" source="taR9dpsqyWwzdjh2HAOg-3">
          <mxGeometry width="50" height="50" relative="1" as="geometry">
            <mxPoint x="490" y="290" as="sourcePoint" />
            <mxPoint x="489.5" y="330" as="targetPoint" />
          </mxGeometry>
        </mxCell>
        <mxCell id="8vNSCbNxaSFnTM4sZ4fX-86" value="" style="shape=flexArrow;endArrow=classic;html=1;rounded=0;fillColor=#f5f5f5;strokeColor=#666666;gradientColor=#b3b3b3;flowAnimation=0;entryX=0.357;entryY=0.667;entryDx=0;entryDy=0;entryPerimeter=0;" parent="1" edge="1">
          <mxGeometry width="50" height="50" relative="1" as="geometry">
            <mxPoint x="319.52" y="350" as="sourcePoint" />
            <mxPoint x="319.5" y="310.01" as="targetPoint" />
          </mxGeometry>
        </mxCell>
        <mxCell id="8vNSCbNxaSFnTM4sZ4fX-89" value="" style="shape=link;html=1;rounded=0;entryX=0;entryY=0.824;entryDx=0;entryDy=0;entryPerimeter=0;exitX=1.001;exitY=0.92;exitDx=0;exitDy=0;exitPerimeter=0;" parent="1" source="8vNSCbNxaSFnTM4sZ4fX-39" target="8vNSCbNxaSFnTM4sZ4fX-45" edge="1">
          <mxGeometry width="100" relative="1" as="geometry">
            <mxPoint x="720" y="517" as="sourcePoint" />
            <mxPoint x="760" y="517" as="targetPoint" />
          </mxGeometry>
        </mxCell>
        <mxCell id="8vNSCbNxaSFnTM4sZ4fX-90" value="CI" style="rounded=0;whiteSpace=wrap;html=1;gradientColor=default;fillColor=light-dark(#0a0a0a, #ededed);fontColor=light-dark(#ffffff, #ededed);fontStyle=1" parent="1" vertex="1">
          <mxGeometry x="736" y="500" width="19" height="30" as="geometry" />
        </mxCell>
        <mxCell id="8vNSCbNxaSFnTM4sZ4fX-98" value="Base" style="swimlane;fontStyle=0;childLayout=stackLayout;horizontal=1;startSize=30;horizontalStack=0;resizeParent=1;resizeParentMax=0;resizeLast=0;collapsible=1;marginBottom=0;whiteSpace=wrap;html=1;" parent="1" vertex="1">
          <mxGeometry x="160" y="60" width="140" height="90" as="geometry" />
        </mxCell>
        <mxCell id="8vNSCbNxaSFnTM4sZ4fX-99" value="Base Page" style="text;strokeColor=none;fillColor=none;align=left;verticalAlign=middle;spacingLeft=4;spacingRight=4;overflow=hidden;points=[[0,0.5],[1,0.5]];portConstraint=eastwest;rotatable=0;whiteSpace=wrap;html=1;" parent="8vNSCbNxaSFnTM4sZ4fX-98" vertex="1">
          <mxGeometry y="30" width="140" height="30" as="geometry" />
        </mxCell>
        <mxCell id="8vNSCbNxaSFnTM4sZ4fX-100" value="Base Test" style="text;strokeColor=none;fillColor=none;align=left;verticalAlign=middle;spacingLeft=4;spacingRight=4;overflow=hidden;points=[[0,0.5],[1,0.5]];portConstraint=eastwest;rotatable=0;whiteSpace=wrap;html=1;" parent="8vNSCbNxaSFnTM4sZ4fX-98" vertex="1">
          <mxGeometry y="60" width="140" height="30" as="geometry" />
        </mxCell>
        <mxCell id="8vNSCbNxaSFnTM4sZ4fX-104" style="edgeStyle=orthogonalEdgeStyle;rounded=0;orthogonalLoop=1;jettySize=auto;html=1;entryX=0.431;entryY=0.017;entryDx=0;entryDy=0;entryPerimeter=0;" parent="1" source="8vNSCbNxaSFnTM4sZ4fX-99" target="8vNSCbNxaSFnTM4sZ4fX-2" edge="1">
          <mxGeometry relative="1" as="geometry" />
        </mxCell>
        <mxCell id="8vNSCbNxaSFnTM4sZ4fX-106" style="edgeStyle=orthogonalEdgeStyle;rounded=0;orthogonalLoop=1;jettySize=auto;html=1;exitX=1;exitY=0.5;exitDx=0;exitDy=0;entryX=0.557;entryY=0;entryDx=0;entryDy=0;entryPerimeter=0;" parent="1" source="8vNSCbNxaSFnTM4sZ4fX-100" target="8vNSCbNxaSFnTM4sZ4fX-8" edge="1">
          <mxGeometry relative="1" as="geometry" />
        </mxCell>
        <mxCell id="8vNSCbNxaSFnTM4sZ4fX-118" value="&lt;ul&gt;&lt;li&gt;Properties&lt;/li&gt;&lt;li&gt;Log4j2&lt;/li&gt;&lt;/ul&gt;" style="text;html=1;align=left;verticalAlign=middle;whiteSpace=wrap;rounded=0;" parent="1" vertex="1">
          <mxGeometry x="270" y="410" width="60" height="30" as="geometry" />
        </mxCell>
        <mxCell id="8vNSCbNxaSFnTM4sZ4fX-119" value="&lt;ul&gt;&lt;li&gt;TestNG&lt;/li&gt;&lt;li&gt;Extent&lt;/li&gt;&lt;/ul&gt;" style="text;html=1;align=left;verticalAlign=middle;whiteSpace=wrap;rounded=0;" parent="1" vertex="1">
          <mxGeometry x="450" y="410" width="60" height="30" as="geometry" />
        </mxCell>
        <mxCell id="8vNSCbNxaSFnTM4sZ4fX-121" value="&lt;ul&gt;&lt;li&gt;Info&lt;/li&gt;&lt;li&gt;Debug&lt;/li&gt;&lt;li&gt;Warn&lt;/li&gt;&lt;/ul&gt;" style="text;html=1;align=left;verticalAlign=middle;whiteSpace=wrap;rounded=0;" parent="1" vertex="1">
          <mxGeometry x="556" y="410" width="60" height="30" as="geometry" />
        </mxCell>
        <mxCell id="taR9dpsqyWwzdjh2HAOg-1" value="&lt;span style=&quot;color: rgb(255, 0, 0); font-weight: 700;&quot;&gt;Testng.xml&lt;/span&gt;" style="swimlane;fontStyle=0;childLayout=stackLayout;horizontal=1;startSize=30;horizontalStack=0;resizeParent=1;resizeParentMax=0;resizeLast=0;collapsible=1;marginBottom=0;whiteSpace=wrap;html=1;" vertex="1" parent="1">
          <mxGeometry x="430" y="190" width="120" height="90" as="geometry" />
        </mxCell>
        <mxCell id="taR9dpsqyWwzdjh2HAOg-2" value="&lt;span style=&quot;background-color: transparent; color: light-dark(rgb(0, 0, 0), rgb(255, 255, 255));&quot;&gt;&lt;font style=&quot;font-size: 10px;&quot;&gt;RegressionTestSuite.xml&lt;/font&gt;&lt;/span&gt;" style="text;strokeColor=none;fillColor=none;align=left;verticalAlign=middle;spacingLeft=4;spacingRight=4;overflow=hidden;points=[[0,0.5],[1,0.5]];portConstraint=eastwest;rotatable=0;whiteSpace=wrap;html=1;strokeWidth=2;" vertex="1" parent="taR9dpsqyWwzdjh2HAOg-1">
          <mxGeometry y="30" width="120" height="30" as="geometry" />
        </mxCell>
        <mxCell id="taR9dpsqyWwzdjh2HAOg-3" value="&lt;span style=&quot;background-color: transparent; color: light-dark(rgb(0, 0, 0), rgb(255, 255, 255));&quot;&gt;SanityTestSuite.xml&lt;/span&gt;" style="text;strokeColor=none;fillColor=none;align=left;verticalAlign=middle;spacingLeft=4;spacingRight=4;overflow=hidden;points=[[0,0.5],[1,0.5]];portConstraint=eastwest;rotatable=0;whiteSpace=wrap;html=1;" vertex="1" parent="taR9dpsqyWwzdjh2HAOg-1">
          <mxGeometry y="60" width="120" height="30" as="geometry" />
        </mxCell>
        <mxCell id="taR9dpsqyWwzdjh2HAOg-13" value="&lt;span style=&quot;color: rgb(255, 0, 0); font-weight: 700;&quot;&gt;pom.xml&lt;/span&gt;" style="swimlane;fontStyle=0;childLayout=stackLayout;horizontal=1;startSize=30;horizontalStack=0;resizeParent=1;resizeParentMax=0;resizeLast=0;collapsible=1;marginBottom=0;whiteSpace=wrap;html=1;" vertex="1" parent="1">
          <mxGeometry x="590" y="190" width="90" height="90" as="geometry" />
        </mxCell>
        <mxCell id="taR9dpsqyWwzdjh2HAOg-14" value="&lt;span style=&quot;background-color: transparent; color: light-dark(rgb(0, 0, 0), rgb(255, 255, 255));&quot;&gt;Dependencies&lt;/span&gt;" style="text;strokeColor=none;fillColor=none;align=left;verticalAlign=middle;spacingLeft=4;spacingRight=4;overflow=hidden;points=[[0,0.5],[1,0.5]];portConstraint=eastwest;rotatable=0;whiteSpace=wrap;html=1;" vertex="1" parent="taR9dpsqyWwzdjh2HAOg-13">
          <mxGeometry y="30" width="90" height="30" as="geometry" />
        </mxCell>
        <mxCell id="taR9dpsqyWwzdjh2HAOg-15" value="&lt;span style=&quot;background-color: transparent; color: light-dark(rgb(0, 0, 0), rgb(255, 255, 255));&quot;&gt;Plugins&lt;/span&gt;" style="text;strokeColor=none;fillColor=none;align=left;verticalAlign=middle;spacingLeft=4;spacingRight=4;overflow=hidden;points=[[0,0.5],[1,0.5]];portConstraint=eastwest;rotatable=0;whiteSpace=wrap;html=1;" vertex="1" parent="taR9dpsqyWwzdjh2HAOg-13">
          <mxGeometry y="60" width="90" height="30" as="geometry" />
        </mxCell>
        <mxCell id="taR9dpsqyWwzdjh2HAOg-18" value="" style="shape=flexArrow;endArrow=classic;html=1;rounded=0;entryX=0.25;entryY=0;entryDx=0;entryDy=0;fillColor=#f5f5f5;gradientColor=#b3b3b3;strokeColor=#666666;exitX=0.5;exitY=1;exitDx=0;exitDy=0;exitPerimeter=0;" edge="1" parent="1">
          <mxGeometry width="50" height="50" relative="1" as="geometry">
            <mxPoint x="634.5" y="280" as="sourcePoint" />
            <mxPoint x="634.5" y="350" as="targetPoint" />
          </mxGeometry>
        </mxCell>
        <mxCell id="taR9dpsqyWwzdjh2HAOg-19" value="&lt;span style=&quot;color: rgb(255, 0, 0); font-weight: 700;&quot;&gt;Test Data&lt;/span&gt;" style="swimlane;fontStyle=0;childLayout=stackLayout;horizontal=1;startSize=30;horizontalStack=0;resizeParent=1;resizeParentMax=0;resizeLast=0;collapsible=1;marginBottom=0;whiteSpace=wrap;html=1;" vertex="1" parent="1">
          <mxGeometry x="200" y="580" width="70" height="90" as="geometry" />
        </mxCell>
        <mxCell id="taR9dpsqyWwzdjh2HAOg-20" value="&lt;span style=&quot;background-color: transparent; color: light-dark(rgb(0, 0, 0), rgb(255, 255, 255));&quot;&gt;JsonUtils&lt;/span&gt;" style="text;strokeColor=none;fillColor=none;align=left;verticalAlign=middle;spacingLeft=4;spacingRight=4;overflow=hidden;points=[[0,0.5],[1,0.5]];portConstraint=eastwest;rotatable=0;whiteSpace=wrap;html=1;" vertex="1" parent="taR9dpsqyWwzdjh2HAOg-19">
          <mxGeometry y="30" width="70" height="30" as="geometry" />
        </mxCell>
        <mxCell id="taR9dpsqyWwzdjh2HAOg-21" value="&lt;span style=&quot;background-color: transparent; color: light-dark(rgb(0, 0, 0), rgb(255, 255, 255));&quot;&gt;DateUtils&lt;/span&gt;" style="text;strokeColor=none;fillColor=none;align=left;verticalAlign=middle;spacingLeft=4;spacingRight=4;overflow=hidden;points=[[0,0.5],[1,0.5]];portConstraint=eastwest;rotatable=0;whiteSpace=wrap;html=1;" vertex="1" parent="taR9dpsqyWwzdjh2HAOg-19">
          <mxGeometry y="60" width="70" height="30" as="geometry" />
        </mxCell>
        <mxCell id="taR9dpsqyWwzdjh2HAOg-31" value="&lt;span style=&quot;color: rgb(255, 0, 0); font-weight: 700;&quot;&gt;Utilities&lt;/span&gt;" style="swimlane;fontStyle=0;childLayout=stackLayout;horizontal=1;startSize=30;horizontalStack=0;resizeParent=1;resizeParentMax=0;resizeLast=0;collapsible=1;marginBottom=0;whiteSpace=wrap;html=1;" vertex="1" parent="1">
          <mxGeometry x="110" y="360" width="70" height="90" as="geometry" />
        </mxCell>
        <mxCell id="taR9dpsqyWwzdjh2HAOg-32" value="&lt;span style=&quot;background-color: transparent; color: light-dark(rgb(0, 0, 0), rgb(255, 255, 255));&quot;&gt;JsonUtils&lt;/span&gt;" style="text;strokeColor=none;fillColor=none;align=left;verticalAlign=middle;spacingLeft=4;spacingRight=4;overflow=hidden;points=[[0,0.5],[1,0.5]];portConstraint=eastwest;rotatable=0;whiteSpace=wrap;html=1;" vertex="1" parent="taR9dpsqyWwzdjh2HAOg-31">
          <mxGeometry y="30" width="70" height="30" as="geometry" />
        </mxCell>
        <mxCell id="taR9dpsqyWwzdjh2HAOg-33" value="&lt;span style=&quot;background-color: transparent; color: light-dark(rgb(0, 0, 0), rgb(255, 255, 255));&quot;&gt;DateUtils&lt;/span&gt;" style="text;strokeColor=none;fillColor=none;align=left;verticalAlign=middle;spacingLeft=4;spacingRight=4;overflow=hidden;points=[[0,0.5],[1,0.5]];portConstraint=eastwest;rotatable=0;whiteSpace=wrap;html=1;" vertex="1" parent="taR9dpsqyWwzdjh2HAOg-31">
          <mxGeometry y="60" width="70" height="30" as="geometry" />
        </mxCell>
        <mxCell id="taR9dpsqyWwzdjh2HAOg-38" value="&lt;span style=&quot;color: rgb(255, 0, 0);&quot;&gt;Test Data&lt;/span&gt;" style="swimlane;whiteSpace=wrap;html=1;" vertex="1" parent="1">
          <mxGeometry x="202.5" y="360" width="70" height="90" as="geometry" />
        </mxCell>
        <mxCell id="taR9dpsqyWwzdjh2HAOg-39" value="&lt;ul&gt;&lt;li&gt;&lt;span style=&quot;&quot;&gt;Json&lt;/span&gt;&lt;/li&gt;&lt;li&gt;&lt;span style=&quot;&quot;&gt;Excel&lt;/span&gt;&lt;/li&gt;&lt;li&gt;&lt;span style=&quot;&quot;&gt;MySQL DB&lt;/span&gt;&lt;/li&gt;&lt;/ul&gt;" style="text;html=1;align=left;verticalAlign=middle;whiteSpace=wrap;rounded=0;" vertex="1" parent="taR9dpsqyWwzdjh2HAOg-38">
          <mxGeometry x="-22.5" y="40" width="60" height="30" as="geometry" />
        </mxCell>
      </root>
    </mxGraphModel>
  </diagram>
</mxfile>
